<svg width="131" height="36" viewBox="0 0 131 36" fill="none" xmlns="http://www.w3.org/2000/svg">
<g clip-path="url(#clip0_31_8726)">
<path d="M38.5524 6.98619L37.8763 9.20023H36.4053L38.9091 1.38422H40.7293L43.2703 9.20023H41.7398L41.034 6.98619H38.5524ZM40.7888 5.90889L40.1721 3.9846C40.0235 3.5091 39.8972 2.97417 39.7783 2.52096H39.7561C39.6372 2.97417 39.5257 3.51653 39.3846 3.9846L38.7828 5.90889H40.7888Z" fill="#FF0000"/>
<path d="M45.4027 3.55359L46.3165 6.42144C46.48 6.91923 46.5914 7.37244 46.7029 7.83308H46.74C46.844 7.37244 46.9703 6.92666 47.1264 6.42144L48.0328 3.55359H49.5262L47.3716 9.20014H45.9673L43.8647 3.55359H45.4101H45.4027Z" fill="#FF0000"/>
<path d="M55.2173 7.84792C55.2173 8.36057 55.2396 8.85835 55.3065 9.20755H54.0212L53.9171 8.58346H53.88C53.5456 9.02181 52.9513 9.33385 52.2083 9.33385C51.0716 9.33385 50.4326 8.50916 50.4326 7.65475C50.4326 6.24311 51.6957 5.50757 53.7834 5.52243V5.43327C53.7834 5.06179 53.6348 4.44513 52.6318 4.44513C52.0746 4.44513 51.4951 4.61601 51.1162 4.86119L50.8413 3.93248C51.2573 3.67987 51.9929 3.43469 52.8844 3.43469C54.6973 3.43469 55.2173 4.58629 55.2173 5.82705V7.85535V7.84792ZM53.828 6.44371C52.8175 6.42885 51.8591 6.64431 51.8591 7.49872C51.8591 8.05595 52.2157 8.30856 52.669 8.30856C53.2485 8.30856 53.6571 7.93707 53.7908 7.52844C53.828 7.42443 53.828 7.32041 53.828 7.2164V6.43628V6.44371Z" fill="#FF0000"/>
<path d="M57.9365 2.74374C57.461 2.74374 57.1489 2.39454 57.1489 1.97848C57.1489 1.54013 57.4758 1.19836 57.9513 1.19836C58.4268 1.19836 58.7389 1.5327 58.7537 1.97848C58.7537 2.39454 58.4417 2.74374 57.9513 2.74374H57.9365ZM57.2307 9.20755V3.561H58.6571V9.20755H57.2307Z" fill="#FF0000"/>
<path d="M60.7075 0.960632H62.134V9.20757H60.7075V0.960632Z" fill="#FF0000"/>
<path d="M68.583 7.84792C68.583 8.36057 68.6053 8.85835 68.6722 9.20755H67.3869L67.2829 8.58346H67.2457C66.9114 9.02181 66.317 9.33385 65.574 9.33385C64.4373 9.33385 63.7983 8.50916 63.7983 7.65475C63.7983 6.24311 65.0614 5.50757 67.1491 5.52243V5.43327C67.1491 5.06179 67.0005 4.44513 66.0049 4.44513C65.4477 4.44513 64.8682 4.61601 64.4893 4.86119L64.2144 3.93248C64.6305 3.67987 65.366 3.43469 66.2576 3.43469C68.063 3.43469 68.5905 4.58629 68.5905 5.82705V7.85535L68.583 7.84792ZM67.1937 6.44371C66.1833 6.42885 65.2248 6.64431 65.2248 7.49872C65.2248 8.05595 65.5815 8.30856 66.0347 8.30856C66.6142 8.30856 67.0228 7.93707 67.1565 7.52844C67.1937 7.42443 67.1937 7.32041 67.1937 7.2164V6.43628V6.44371Z" fill="#FF0000"/>
<path d="M70.604 0.960632H72.0305V4.3337H72.0528C72.402 3.79134 73.0187 3.42728 73.8657 3.42728C75.2476 3.42728 76.2283 4.57888 76.2209 6.29514C76.2209 8.32344 74.9355 9.33387 73.6576 9.33387C72.9295 9.33387 72.2757 9.05155 71.8745 8.36059H71.8522L71.7854 9.20757H70.5669C70.5892 8.82123 70.6115 8.19713 70.6115 7.63248V0.960632H70.604ZM72.0305 6.87465C72.0305 6.99353 72.0454 7.10497 72.0677 7.20899C72.2163 7.7885 72.7141 8.20456 73.3307 8.20456C74.2223 8.20456 74.7721 7.49874 74.7721 6.34714C74.7721 5.35157 74.2966 4.54173 73.3456 4.54173C72.7661 4.54173 72.2311 4.9578 72.0825 5.58189C72.0603 5.6859 72.038 5.81221 72.038 5.95337V6.86722L72.0305 6.87465Z" fill="#FF0000"/>
<path d="M77.8926 0.960632H79.3191V9.20757H77.8926V0.960632Z" fill="#FF0000"/>
<path d="M82.3949 6.77809C82.432 7.79595 83.227 8.24173 84.1334 8.24173C84.7947 8.24173 85.2553 8.13772 85.7011 7.98913L85.9091 8.96241C85.4188 9.17044 84.7501 9.31904 83.9403 9.31904C82.1051 9.31904 81.0278 8.19716 81.0278 6.46604C81.0278 4.89838 81.9788 3.42731 83.7917 3.42731C85.6045 3.42731 86.2286 4.93553 86.2286 6.17629C86.2286 6.44375 86.2063 6.65178 86.184 6.77809H82.4023H82.3949ZM84.8764 5.78251C84.8913 5.26244 84.6535 4.40059 83.7025 4.40059C82.8184 4.40059 82.4469 5.203 82.3949 5.78251H84.8764Z" fill="#FF0000"/>
<path d="M93.257 9.3339C91.667 9.3339 90.4263 8.24174 90.4263 6.42147C90.4263 4.6012 91.6447 3.42731 93.3461 3.42731C95.0475 3.42731 96.1545 4.60863 96.1545 6.32488C96.1545 8.39776 94.6909 9.32647 93.2644 9.32647H93.2495L93.257 9.3339ZM93.3016 8.30117C94.1114 8.30117 94.6835 7.51363 94.6835 6.36203C94.6835 5.4779 94.2897 4.46003 93.3164 4.46003C92.3431 4.46003 91.8973 5.44818 91.8973 6.38432C91.8973 7.47648 92.4397 8.30117 93.2867 8.30117H93.3016Z" fill="#FF0000"/>
<path d="M97.8336 5.2401C97.8336 4.59372 97.8114 4.04393 97.7891 3.561H99.0298L99.0967 4.40798H99.1338C99.3864 3.96963 100.003 3.43469 100.947 3.43469C101.89 3.43469 102.953 4.07364 102.953 5.85677V9.20755H101.526V6.02022C101.526 5.21038 101.222 4.59372 100.449 4.59372C99.8842 4.59372 99.4905 5.00235 99.3344 5.42584C99.2899 5.54472 99.2676 5.7156 99.2676 5.87905V9.20755H97.8411V5.2401H97.8336Z" fill="#FF0000"/>
<path d="M109.521 2.10478V3.55357H110.88V4.62344H109.521V7.10495C109.521 7.80334 109.706 8.1451 110.249 8.1451C110.501 8.1451 110.642 8.13025 110.806 8.08567L110.828 9.16297C110.62 9.2447 110.234 9.31156 109.795 9.31156C109.261 9.31156 108.837 9.14068 108.57 8.85092C108.258 8.52402 108.116 8.00394 108.116 7.26097V4.61601H107.314V3.54614H108.116V2.49112L109.521 2.09735V2.10478Z" fill="#FF0000"/>
<path d="M112.47 0.960632H113.897V4.32627H113.919C114.09 4.05881 114.335 3.83592 114.625 3.68732C114.915 3.52387 115.249 3.43471 115.613 3.43471C116.572 3.43471 117.582 4.07367 117.582 5.87908V9.20757H116.155V6.02767C116.155 5.21784 115.851 4.58631 115.063 4.58631C114.506 4.58631 114.112 4.9578 113.949 5.38872C113.904 5.51502 113.889 5.67105 113.889 5.81964V9.20757H112.463V0.960632H112.47Z" fill="#FF0000"/>
<path d="M120.62 6.77809C120.658 7.79595 121.453 8.24173 122.359 8.24173C123.02 8.24173 123.481 8.13772 123.927 7.98913L124.135 8.96241C123.644 9.17044 122.976 9.31904 122.166 9.31904C120.331 9.31904 119.253 8.19716 119.253 6.46604C119.253 4.89838 120.204 3.42731 122.017 3.42731C123.83 3.42731 124.454 4.93553 124.454 6.17629C124.454 6.44375 124.432 6.65178 124.41 6.77809H120.628H120.62ZM123.102 5.78251C123.117 5.26244 122.879 4.40059 121.928 4.40059C121.044 4.40059 120.672 5.203 120.62 5.78251H123.102Z" fill="#FF0000"/>
<path d="M20.8105 16.7858C20.7734 12.915 23.9755 11.0353 24.1241 10.9461C22.3113 8.30116 19.4954 7.9371 18.5073 7.90738C16.1447 7.66221 13.8563 9.31902 12.6527 9.31902C11.4491 9.31902 9.5694 7.92967 7.57825 7.96682C5.00759 8.0114 2.6078 9.49733 1.28532 11.8005C-1.43394 16.5109 0.59436 23.428 3.20218 27.2394C4.5098 29.1042 6.03288 31.1846 8.02403 31.1103C9.97061 31.0285 10.6987 29.8695 13.0539 29.8695C15.4091 29.8695 16.0704 31.1103 18.1061 31.0657C20.2013 31.0285 21.5163 29.1934 22.7719 27.3137C24.2802 25.1739 24.882 23.0713 24.9117 22.9673C24.8597 22.9525 20.8476 21.422 20.8031 16.7784" fill="#FF0000"/>
<path d="M16.9695 5.41101C18.0171 4.09596 18.7378 2.31284 18.5372 0.5C17.0215 0.566867 15.1195 1.54758 14.0274 2.83292C13.0615 3.96223 12.1922 5.81965 12.4151 7.55819C14.124 7.68449 15.8699 6.69635 16.9695 5.40358" fill="#FF0000"/>
<path d="M48.9989 30.8131H46.2796L44.7937 26.1324H39.6226L38.2036 30.8131H35.5586L40.6851 14.8839H43.8501L48.9989 30.8131ZM44.3479 24.171L43.0031 20.0104C42.862 19.5869 42.5945 18.5839 42.2007 17.0088H42.1561C42.0001 17.6849 41.7475 18.6879 41.3983 20.0104L40.0758 24.171H44.3553H44.3479Z" fill="#FF0000"/>
<path d="M62.1863 24.9288C62.1863 26.8828 61.6588 28.4281 60.6038 29.5574C59.6602 30.5679 58.4863 31.0657 57.0821 31.0657C55.5665 31.0657 54.4818 30.5233 53.8205 29.4386H53.7759V35.4863H51.2201V23.1011C51.2201 21.8752 51.1904 20.6121 51.1235 19.3194H53.3673L53.5085 21.1396H53.5605C54.4074 19.7651 55.7002 19.0816 57.4313 19.0816C58.7835 19.0816 59.9203 19.6165 60.8193 20.6864C61.7257 21.7563 62.1789 23.1679 62.1789 24.9139M59.5859 25.0253C59.5859 23.9109 59.3333 22.9822 58.8281 22.2615C58.2783 21.5037 57.5353 21.1248 56.6066 21.1248C55.9751 21.1248 55.403 21.3328 54.8904 21.7489C54.3777 22.1723 54.0434 22.7147 53.8874 23.3908C53.8056 23.7103 53.7685 23.9629 53.7685 24.1709V26.0878C53.7685 26.9199 54.0211 27.6257 54.5338 28.1978C55.0464 28.7773 55.7151 29.0597 56.5323 29.0597C57.4908 29.0597 58.2412 28.6956 58.7761 27.9526C59.311 27.2097 59.5785 26.2364 59.5785 25.0179" fill="#FF0000"/>
<path d="M75.3967 24.9288C75.3967 26.8828 74.8692 28.4281 73.8141 29.5574C72.8706 30.5679 71.6967 31.0657 70.2925 31.0657C68.7843 31.0657 67.6921 30.5233 67.0309 29.4386H66.9863V35.4863H64.4379V23.1011C64.4379 21.8752 64.4082 20.6121 64.3413 19.3194H66.5851L66.7262 21.1396H66.7782C67.6252 19.7651 68.918 19.0816 70.6491 19.0816C72.0013 19.0816 73.1306 19.6165 74.037 20.6864C74.9435 21.7563 75.3967 23.1679 75.3967 24.9139M72.7963 25.0253C72.7963 23.9109 72.5437 22.9822 72.0385 22.2615C71.4887 21.5037 70.7457 21.1248 69.817 21.1248C69.1855 21.1248 68.6134 21.3328 68.1007 21.7489C67.5881 22.1723 67.2537 22.7147 67.0977 23.3908C67.016 23.7103 66.9788 23.9629 66.9788 24.1709V26.0878C66.9788 26.9199 67.2315 27.6257 67.7441 28.1978C68.2567 28.7773 68.918 29.0597 69.7427 29.0597C70.7011 29.0597 71.4515 28.6956 71.9864 27.9526C72.5214 27.2097 72.7888 26.2364 72.7888 25.0179" fill="#FF0000"/>
<path d="M90.1667 26.3478C90.1667 27.7 89.6987 28.8071 88.7477 29.654C87.7075 30.5827 86.2661 31.0508 84.4087 31.0508C82.6925 31.0508 81.318 30.7239 80.2778 30.0627L80.8722 27.9378C81.9941 28.6139 83.22 28.9556 84.5648 28.9556C85.5232 28.9556 86.2736 28.7402 86.8085 28.3093C87.3434 27.8709 87.6109 27.2914 87.6109 26.5707C87.6109 25.9243 87.388 25.382 86.9497 24.9362C86.5113 24.4904 85.7758 24.0818 84.7505 23.7029C81.9644 22.6627 80.5676 21.1396 80.5676 19.1336C80.5676 17.826 81.0579 16.7487 82.0312 15.9166C83.0045 15.077 84.3047 14.6609 85.9318 14.6609C87.3806 14.6609 88.5842 14.9136 89.5426 15.4188L88.9037 17.4991C88.0047 17.0087 86.9868 16.7635 85.8575 16.7635C84.9585 16.7635 84.2601 16.9864 83.7549 17.4248C83.3314 17.8186 83.116 18.3015 83.116 18.8661C83.116 19.4977 83.3611 20.0177 83.8441 20.4264C84.2676 20.8053 85.0403 21.2139 86.1621 21.6597C87.5292 22.2095 88.5396 22.8559 89.186 23.5988C89.8324 24.3418 90.1519 25.2631 90.1519 26.3627" fill="#FF0000"/>
<path d="M98.5993 21.2436H95.7909V26.8233C95.7909 28.2424 96.2887 28.9482 97.2843 28.9482C97.7375 28.9482 98.1164 28.9111 98.4136 28.8293L98.4805 30.7685C97.9827 30.9542 97.314 31.0508 96.4967 31.0508C95.4863 31.0508 94.6988 30.7462 94.1341 30.1295C93.5694 29.5129 93.2797 28.4802 93.2797 27.0314V21.2436H91.6006V19.3268H93.2797V17.2242L95.7835 16.4664V19.3268H98.5919V21.2436H98.5993Z" fill="#FF0000"/>
<path d="M111.297 24.9807C111.297 26.749 110.792 28.1978 109.789 29.3271C108.734 30.4936 107.329 31.0731 105.583 31.0731C103.837 31.0731 102.552 30.5158 101.556 29.394C100.553 28.2795 100.056 26.8679 100.056 25.1665C100.056 23.3834 100.568 21.9271 101.601 20.7978C102.634 19.6611 104.023 19.0964 105.769 19.0964C107.515 19.0964 108.808 19.6537 109.833 20.7755C110.814 21.8677 111.297 23.2645 111.297 24.9807ZM108.644 25.0625C108.644 24.0074 108.414 23.0936 107.961 22.3358C107.426 21.4219 106.661 20.9613 105.672 20.9613C104.684 20.9613 103.867 21.4219 103.332 22.3358C102.872 23.0936 102.649 24.0149 102.649 25.107C102.649 26.1992 102.872 27.0759 103.332 27.8337C103.882 28.7476 104.655 29.2082 105.65 29.2082C106.646 29.2082 107.389 28.7401 107.939 27.8114C108.414 27.0388 108.644 26.1249 108.644 25.0625Z" fill="#FF0000"/>
<path d="M119.588 21.5706C119.336 21.526 119.068 21.5037 118.786 21.5037C117.887 21.5037 117.196 21.8455 116.705 22.5216C116.282 23.1234 116.067 23.8738 116.067 24.7876V30.8131H113.518L113.54 22.945C113.54 21.6226 113.511 20.419 113.444 19.3268H115.665L115.762 21.526H115.829C116.096 20.7682 116.527 20.1589 117.107 19.7057C117.671 19.2971 118.288 19.0891 118.949 19.0891C119.187 19.0891 119.395 19.1039 119.588 19.1336V21.5706Z" fill="#FF0000"/>
<path d="M131 24.5275C131 24.9882 130.971 25.3671 130.911 25.6866H123.259C123.288 26.8233 123.66 27.6851 124.366 28.287C125.012 28.8219 125.844 29.0894 126.869 29.0894C127.999 29.0894 129.031 28.911 129.968 28.547L130.369 30.3227C129.284 30.7982 127.999 31.0359 126.513 31.0359C124.737 31.0359 123.333 30.5084 122.322 29.4608C121.312 28.4133 120.799 27.009 120.799 25.2408C120.799 23.4725 121.275 22.0683 122.218 20.9167C123.207 19.6908 124.551 19.0742 126.23 19.0742C127.91 19.0742 129.143 19.6908 129.99 20.9167C130.666 21.8974 131 23.101 131 24.535M128.563 23.8663C128.578 23.1085 128.415 22.4547 128.066 21.9049C127.627 21.199 126.944 20.8424 126.03 20.8424C125.198 20.8424 124.522 21.1916 124.002 21.8826C123.578 22.4324 123.325 23.0936 123.251 23.8663H128.563Z" fill="#FF0000"/>
</g>
<defs>
<clipPath id="clip0_31_8726">
<rect width="131" height="34.9938" fill="white" transform="translate(0 0.5)"/>
</clipPath>
</defs>
</svg>
