<svg width="132" height="32" viewBox="0 0 132 32" fill="none" xmlns="http://www.w3.org/2000/svg">
<g clip-path="url(#clip0_14_371)">
<path d="M66.0072 17.4027C63.3495 17.4027 61.1769 19.4276 61.1769 22.2118C61.1769 24.9961 63.3425 27.021 66.0072 27.021C68.6719 27.021 70.8374 24.982 70.8374 22.2118C70.8374 19.4416 68.6719 17.4027 66.0072 17.4027ZM66.0072 25.1296C64.5518 25.1296 63.2932 23.9274 63.2932 22.2118C63.2932 20.4963 64.5518 19.294 66.0072 19.294C67.4626 19.294 68.7211 20.4752 68.7211 22.2118C68.7211 23.9485 67.4626 25.1296 66.0072 25.1296ZM55.4749 17.4027C52.8172 17.4027 50.6446 19.4276 50.6446 22.2118C50.6446 24.9961 52.8102 27.021 55.4749 27.021C58.1396 27.021 60.3051 24.982 60.3051 22.2118C60.3051 19.4416 58.1396 17.4027 55.4749 17.4027ZM55.4749 25.1296C54.0195 25.1296 52.7609 23.9274 52.7609 22.2118C52.7609 20.4963 54.0195 19.294 55.4749 19.294C56.9303 19.294 58.1888 20.4752 58.1888 22.2118C58.1888 23.9485 56.9303 25.1296 55.4749 25.1296ZM42.9458 18.8792V20.9181H47.8252C47.6776 22.0642 47.2979 22.9008 46.7143 23.4844C46.0042 24.1945 44.8933 24.975 42.9458 24.975C39.9365 24.975 37.5882 22.5493 37.5882 19.5471C37.5882 16.5449 39.9365 14.1192 42.9458 14.1192C44.5699 14.1192 45.7511 14.7591 46.6229 15.5746L48.0643 14.1333C46.8409 12.9662 45.2238 12.0732 42.9458 12.0732C38.8257 12.0732 35.3665 15.427 35.3665 19.5401C35.3665 23.6532 38.8257 27.0069 42.9458 27.0069C45.1675 27.0069 46.8479 26.2757 48.1557 24.9117C49.5056 23.5618 49.9204 21.6704 49.9204 20.1377C49.9204 19.6666 49.8853 19.2237 49.808 18.8651H42.9387L42.9458 18.8792ZM94.18 20.4611C93.7793 19.3854 92.5559 17.4027 90.0599 17.4027C87.564 17.4027 85.525 19.3502 85.525 22.2118C85.525 24.9047 87.564 27.021 90.299 27.021C92.5067 27.021 93.7793 25.671 94.3066 24.8906L92.6684 23.8008C92.12 24.6023 91.3747 25.1296 90.299 25.1296C89.2233 25.1296 88.4569 24.6375 87.9647 23.6743L94.398 21.0166L94.18 20.4682V20.4611ZM87.6202 22.0642C87.564 20.208 89.0615 19.2588 90.1373 19.2588C90.974 19.2588 91.6841 19.6807 91.9231 20.2783L87.6272 22.0642H87.6202ZM82.3962 26.7327H84.5125V12.5935H82.3962V26.7327ZM78.93 18.4784H78.8597C78.3886 17.9159 77.4746 17.4027 76.3286 17.4027C73.924 17.4027 71.7163 19.519 71.7163 22.2329C71.7163 24.9468 73.924 27.021 76.3286 27.021C77.4746 27.021 78.3886 26.5077 78.8597 25.9312H78.93V26.6202C78.93 28.4623 77.9457 29.4466 76.3637 29.4466C75.07 29.4466 74.2685 28.5185 73.938 27.7311L72.0959 28.4975C72.6233 29.7701 74.0294 31.3379 76.3567 31.3379C78.8316 31.3379 80.9268 29.8825 80.9268 26.3249V17.6909H78.923V18.4714L78.93 18.4784ZM76.5114 25.1296C75.056 25.1296 73.8326 23.9063 73.8326 22.2329C73.8326 20.5596 75.056 19.301 76.5114 19.301C77.9668 19.301 79.0776 20.5385 79.0776 22.2329C79.0776 23.9274 77.9457 25.1296 76.5114 25.1296ZM104.08 12.5935H99.0243V26.7327H101.134V21.3751H104.08C106.421 21.3751 108.72 19.6807 108.72 16.9879C108.72 14.295 106.421 12.6006 104.08 12.6006V12.5935ZM104.136 19.4065H101.134V14.5622H104.136C105.711 14.5622 106.611 15.8699 106.611 16.9879C106.611 18.1058 105.718 19.4135 104.136 19.4135V19.4065ZM117.178 17.3746C115.652 17.3746 114.071 18.0495 113.417 19.5401L115.287 20.3205C115.688 19.5401 116.433 19.287 117.213 19.287C118.303 19.287 119.414 19.9408 119.435 21.108V21.2556C119.055 21.0377 118.233 20.7072 117.234 20.7072C115.217 20.7072 113.164 21.8181 113.164 23.8922C113.164 25.7835 114.816 26.9999 116.672 26.9999C118.092 26.9999 118.873 26.3601 119.365 25.6148H119.435V26.7046H121.474V21.2837C121.474 18.7737 119.604 17.3746 117.185 17.3746H117.178ZM116.925 25.1226C116.236 25.1226 115.273 24.7781 115.273 23.9203C115.273 22.8305 116.475 22.4087 117.509 22.4087C118.437 22.4087 118.873 22.6056 119.435 22.8798C119.273 24.1875 118.141 25.1156 116.925 25.1156V25.1226ZM128.892 17.6839L126.473 23.8149H126.403L123.893 17.6839H121.622L125.383 26.2476L123.239 31.0145H125.439L131.24 17.6839H128.892ZM109.88 26.7327H111.989V12.5935H109.88V26.7327Z" fill="white"/>
<path d="M0.753198 1.33711C0.422745 1.68162 0.23291 2.223 0.23291 2.92609V27.914C0.23291 28.6171 0.429776 29.1514 0.753198 29.503L0.837569 29.5873L14.8361 15.5888V15.2583L0.837569 1.25977L0.753198 1.34414V1.33711Z" fill="#5BC9F4"/>
<path d="M19.5047 20.2574L14.8362 15.5888V15.2584L19.5047 10.5898L19.6102 10.6531L25.1365 13.7959C26.7184 14.6959 26.7184 16.1583 25.1365 17.0583L19.6102 20.2011L19.5047 20.2644V20.2574Z" fill="url(#paint0_linear_14_371)"/>
<path d="M19.6101 20.1939L14.8361 15.4199L0.753174 29.5028C1.27346 30.0513 2.13123 30.1216 3.1015 29.5732L19.6101 20.1939Z" fill="url(#paint1_linear_14_371)"/>
<path d="M19.6101 10.6532L3.1015 1.27395C2.13826 0.718512 1.27346 0.788821 0.753174 1.33723L14.8361 15.4202L19.6101 10.6462V10.6532Z" fill="url(#paint2_linear_14_371)"/>
<path d="M40.8012 2.1386C40.3794 1.75893 39.8169 1.51988 39.1982 1.51988C37.8061 1.51988 36.7374 2.66592 36.7374 4.07913C36.7374 5.49235 37.8061 6.62432 39.1982 6.62432C40.3934 6.62432 41.2653 5.92826 41.3215 4.83144H39.4302V4.05101H42.348C42.348 6.38527 41.1036 7.48913 39.1982 7.48913C37.2928 7.48913 35.8374 5.96342 35.8374 4.07913C35.8374 2.19485 37.3069 0.662109 39.1982 0.662109C40.077 0.662109 40.8715 0.999593 41.4481 1.54097L40.8012 2.1386Z" fill="white"/>
<path d="M47.5088 0.739258V1.57594H44.4644V3.69927H47.1221V4.54298H44.4644V6.55382H47.6002V7.3905H43.5645V0.739258H47.5018H47.5088Z" fill="white"/>
<path d="M53.3373 0.739258V1.59H51.3194V7.3905H50.4124V1.59H48.3945V0.739258H53.3373Z" fill="white"/>
<path d="M57.6402 0.739258V7.3905H56.7402V0.739258H57.6402Z" fill="white"/>
<path d="M63.7643 0.739258V1.59H61.7464V7.3905H60.8394V1.59H58.8215V0.739258H63.7643Z" fill="white"/>
<path d="M70.0991 0.662109C72.0044 0.662109 73.4809 2.18782 73.4809 4.07913C73.4809 5.97045 72.0044 7.48913 70.0991 7.48913C68.1937 7.48913 66.7383 5.96342 66.7383 4.07913C66.7383 2.19485 68.2077 0.662109 70.0991 0.662109ZM70.0991 6.61729C71.4982 6.61729 72.5739 5.48532 72.5739 4.07913C72.5739 2.67295 71.5052 1.52691 70.0991 1.52691C68.6929 1.52691 67.6382 2.66592 67.6382 4.07913C67.6382 5.49235 68.7069 6.61729 70.0991 6.61729Z" fill="white"/>
<path d="M78.7892 7.3905L75.7588 2.37746V7.3905H74.8589V0.739258H75.7448L78.747 5.71011V0.739258H79.6469V7.3905H78.7892Z" fill="white"/>
</g>
<defs>
<linearGradient id="paint0_linear_14_371" x1="24.11" y1="15.4201" x2="-3.22623" y2="15.4201" gradientUnits="userSpaceOnUse">
<stop stop-color="#FEE000"/>
<stop offset="0.42" stop-color="#FBBC0E"/>
<stop offset="0.78" stop-color="#F9A318"/>
<stop offset="1" stop-color="#F99B1C"/>
</linearGradient>
<linearGradient id="paint1_linear_14_371" x1="17.0157" y1="18.0143" x2="-8.69637" y2="43.7334" gradientUnits="userSpaceOnUse">
<stop stop-color="#EF4547"/>
<stop offset="1" stop-color="#C6186D"/>
</linearGradient>
<linearGradient id="paint2_linear_14_371" x1="-8.8159" y1="-12.9988" x2="12.1854" y2="7.99551" gradientUnits="userSpaceOnUse">
<stop stop-color="#279E6F"/>
<stop offset="0.04" stop-color="#2B9F6E"/>
<stop offset="0.46" stop-color="#52B16B"/>
<stop offset="0.8" stop-color="#6BBC69"/>
<stop offset="1" stop-color="#74C169"/>
</linearGradient>
<clipPath id="clip0_14_371">
<rect width="131" height="30.6759" fill="white" transform="translate(0.23291 0.662109)"/>
</clipPath>
</defs>
</svg>
